<?xml version="1.0" standalone="no"?>
<!DOCTYPE svg PUBLIC "-//W3C//DTD SVG 20010904//EN"
 "http://www.w3.org/TR/2001/REC-SVG-20010904/DTD/svg10.dtd">
<svg version="1.0" xmlns="http://www.w3.org/2000/svg"
 width="386.000000pt" height="387.000000pt" viewBox="0 0 386.000000 387.000000"
 preserveAspectRatio="xMidYMid meet">

<g transform="translate(0.000000,387.000000) scale(0.100000,-0.100000)"
fill="#000000" stroke="none">
<path d="M1765 3863 c-215 -25 -352 -57 -516 -119 -779 -295 -1281 -1057
-1246 -1889 12 -273 70 -507 188 -753 192 -404 504 -716 910 -912 411 -198
874 -242 1320 -126 343 90 647 270 899 532 436 454 624 1092 504 1709 -75 385
-269 744 -551 1016 -316 306 -709 491 -1145 538 -91 10 -295 13 -363 4z m411
-64 c95 -13 250 -52 301 -75 205 -93 283 -134 283 -150 0 -9 -19 -41 -41 -71
-23 -29 -40 -55 -38 -57 8 -7 136 -56 147 -56 7 0 12 11 12 24 0 36 10 56 29
56 21 0 175 -88 259 -147 80 -58 122 -100 122 -123 0 -30 -118 -258 -139 -270
-11 -5 -29 -10 -40 -10 -21 0 -132 55 -271 136 -106 62 -162 87 -391 174 -100
38 -193 79 -206 92 -25 23 -27 50 -8 114 6 19 1 22 -42 28 -107 15 -273 18
-378 7 -60 -7 -111 -14 -114 -16 -2 -3 2 -24 9 -49 6 -24 9 -53 6 -63 -8 -25
-69 -54 -281 -136 -204 -78 -310 -126 -367 -165 -68 -46 -190 -109 -226 -117
-23 -5 -40 -2 -57 9 -29 19 -135 223 -135 259 0 14 15 39 35 60 64 65 308 217
350 217 10 0 17 -14 21 -40 4 -22 10 -40 14 -40 9 0 143 50 148 55 2 2 -15 28
-38 59 -23 30 -40 63 -38 72 3 19 151 97 271 144 95 36 121 39 52 5 -27 -14
-41 -23 -30 -20 181 42 296 63 285 52 -3 -3 -77 -21 -165 -41 -88 -20 -192
-48 -232 -62 -84 -29 -163 -71 -163 -86 0 -9 45 -71 80 -110 9 -9 22 -34 29
-55 8 -21 18 -49 23 -62 l9 -24 27 25 c106 100 493 174 774 148 234 -22 434
-82 515 -153 18 -16 23 -17 27 -6 2 8 10 31 16 52 7 21 36 70 66 109 30 39 54
74 54 78 0 10 -104 69 -135 75 -16 4 -52 15 -80 25 -27 11 -72 26 -100 35 -43
13 -45 14 -12 10 21 -4 46 -8 55 -11 38 -12 -15 15 -59 30 -175 59 -585 77
-823 37 -33 -6 -61 -9 -64 -7 -7 8 129 31 288 50 54 6 279 -3 366 -15z m-228
-26 c-10 -2 -26 -2 -35 0 -10 3 -2 5 17 5 19 0 27 -2 18 -5z m-441 -19 c-3 -3
-12 -4 -19 -1 -8 3 -5 6 6 6 11 1 17 -2 13 -5z m796 -15 c37 -6 66 -13 64 -16
-6 -6 -178 25 -186 33 -3 3 8 4 24 1 17 -3 61 -11 98 -18z m-404 -96 c1 -18
-3 -33 -9 -33 -5 0 -10 7 -10 15 0 8 -8 15 -17 15 -10 0 -23 4 -30 8 -15 10
-28 62 -15 62 5 0 13 -12 16 -26 5 -17 12 -24 24 -22 9 2 16 10 14 18 -2 7 0
20 4 29 5 13 8 11 14 -9 5 -14 8 -40 9 -57z m41 26 c0 -28 4 -39 15 -39 11 0
15 12 15 45 0 25 5 45 10 45 6 0 10 -20 10 -45 0 -33 4 -45 15 -45 11 0 15 11
15 39 0 22 5 43 11 46 7 5 9 -12 7 -51 l-3 -58 -55 3 c-30 1 -57 4 -60 6 -3 2
-3 26 -2 54 4 59 22 59 22 0z m-162 -24 c-13 -38 -41 -65 -54 -52 -4 4 1 13
11 21 18 13 18 14 -3 41 -30 38 -28 54 3 25 l24 -23 12 29 c17 42 23 8 7 -41z
m310 40 c-6 -30 5 -32 42 -5 15 11 29 17 32 14 3 -2 2 -24 -3 -47 -4 -23 -8
-45 -9 -49 0 -5 -5 -8 -11 -8 -7 0 -9 11 -5 30 7 37 0 38 -36 3 -15 -14 -31
-24 -34 -20 -10 9 7 107 18 107 6 0 8 -11 6 -25z m-392 -53 c4 -27 3 -42 -4
-42 -6 0 -13 18 -17 40 -5 31 -11 40 -26 40 -17 0 -20 -6 -17 -46 2 -33 -1
-48 -11 -52 -9 -3 -11 1 -7 15 3 10 2 34 -4 53 -11 40 -11 40 32 49 38 8 44 2
54 -57z m558 52 c28 -11 17 -26 -14 -19 -23 5 -30 3 -30 -9 0 -9 8 -16 20 -16
30 0 24 -18 -7 -22 -35 -4 -41 -26 -9 -34 14 -3 26 -11 26 -16 0 -11 -50 -2
-64 12 -5 5 -3 30 4 59 10 43 16 51 35 51 13 0 30 -3 39 -6z m426 -94 c8 -5
11 -10 5 -10 -5 0 -17 5 -25 10 -8 5 -10 10 -5 10 6 0 17 -5 25 -10z m-1495
-10 c-3 -5 -11 -10 -16 -10 -6 0 -7 5 -4 10 3 6 11 10 16 10 6 0 7 -4 4 -10z
m40 -60 c-3 -5 -12 -10 -18 -10 -7 0 -6 4 3 10 19 12 23 12 15 0z m1435 -12
c0 -6 -6 -5 -15 2 -8 7 -15 14 -15 16 0 2 7 1 15 -2 8 -4 15 -11 15 -16z
m-882 -5 c-10 -2 -26 -2 -35 0 -10 3 -2 5 17 5 19 0 27 -2 18 -5z m335 0 c-7
-2 -21 -2 -30 0 -10 3 -4 5 12 5 17 0 24 -2 18 -5z m-513 -22 c-18 -10 -97
-25 -89 -17 5 5 73 23 94 25 6 0 3 -3 -5 -8z m744 -12 c21 -6 36 -13 33 -15
-5 -6 -129 24 -137 33 -5 6 42 -3 104 -18z m-1064 -14 c0 -2 -10 -10 -22 -16
-21 -11 -22 -11 -9 4 13 16 31 23 31 12z m1325 -5 c3 -5 2 -10 -4 -10 -5 0
-13 5 -16 10 -3 6 -2 10 4 10 5 0 13 -4 16 -10z m-1296 -63 c-2 -1 -13 -9 -24
-17 -19 -14 -19 -14 -6 3 7 9 18 17 24 17 6 0 8 -1 6 -3z m1272 -14 c13 -15
12 -15 -8 -4 -24 12 -29 21 -14 21 5 0 15 -7 22 -17z m-435 -144 l-14 -34 -1
33 c-1 18 5 43 11 55 l13 22 3 -21 c2 -12 -4 -37 -12 -55z m-441 5 c3 -25 4
-48 1 -52 -12 -11 -24 13 -26 48 -3 45 -2 50 9 50 5 0 12 -21 16 -46z m290
-27 c35 -30 41 -82 21 -188 -9 -47 -16 -107 -16 -133 0 -39 4 -48 23 -55 12
-5 25 -6 29 -2 4 3 15 71 25 150 10 79 23 151 30 160 24 31 16 -75 -23 -316
-6 -38 -4 -43 13 -43 16 0 25 22 58 128 40 134 50 155 60 130 4 -9 -10 -68
-30 -133 -20 -64 -34 -123 -31 -131 11 -28 46 -16 62 21 19 46 28 44 21 -5 -4
-34 -2 -40 13 -40 12 0 25 17 40 53 56 131 94 207 103 207 14 0 4 -34 -41
-137 -22 -50 -37 -94 -34 -97 3 -3 18 -6 34 -6 25 0 32 8 67 78 40 79 71 119
71 90 0 -7 -18 -49 -41 -92 -22 -43 -38 -85 -35 -93 9 -22 28 -4 79 74 22 34
47 63 54 63 19 0 18 -1 -37 -88 -35 -55 -50 -89 -50 -113 0 -53 12 -64 40 -34
34 36 44 20 14 -25 -25 -38 -25 -60 -1 -60 7 0 57 54 110 120 89 109 117 136
117 111 0 -5 -7 -14 -15 -21 -28 -23 -175 -227 -175 -243 0 -34 22 -24 114 54
161 136 129 77 -37 -69 -31 -27 -36 -36 -27 -48 15 -17 23 -13 157 84 55 39
106 72 113 72 27 0 -2 -29 -100 -100 -64 -46 -97 -76 -88 -78 25 -5 76 24 155
89 80 66 114 83 154 74 34 -8 57 -33 65 -72 9 -45 -38 -89 -171 -158 -60 -31
-117 -64 -127 -72 -19 -17 -30 -53 -17 -53 5 0 61 20 123 45 119 47 132 50
140 37 3 -5 -55 -33 -129 -63 -101 -40 -135 -58 -135 -71 0 -10 2 -18 4 -18 2
0 77 23 166 50 89 28 169 50 176 50 30 0 12 -30 -23 -39 -21 -6 -99 -28 -173
-50 -125 -36 -135 -41 -132 -62 4 -33 7 -34 69 -21 31 6 59 9 62 6 10 -10 -30
-32 -70 -39 -56 -10 -44 -29 19 -33 55 -3 69 -17 27 -28 -30 -7 -29 -3 -9 -43
10 -20 14 -44 10 -62 -5 -29 -5 -29 44 -29 38 0 50 -4 50 -15 0 -12 -13 -15
-55 -15 -42 0 -63 -6 -85 -22 -38 -27 -37 -33 2 -44 54 -16 47 -34 -11 -27
-46 5 -51 4 -51 -14 0 -17 11 -22 63 -32 117 -23 282 -63 292 -72 17 -16 -39
-10 -182 20 -77 17 -152 33 -167 37 -25 6 -27 4 -24 -16 2 -19 20 -29 107 -59
58 -20 106 -42 109 -48 6 -20 -15 -16 -128 22 -121 41 -110 39 -110 22 0 -25
34 -43 197 -108 90 -35 163 -70 163 -76 0 -22 -23 -15 -181 52 -84 36 -158 65
-163 65 -32 -1 65 -63 150 -96 55 -21 111 -50 127 -65 49 -49 30 -128 -37
-145 -31 -7 -97 26 -154 78 -85 78 -161 114 -187 89 -6 -5 -18 -11 -28 -13
-13 -2 12 -27 87 -88 58 -47 105 -88 106 -92 1 -22 -38 0 -130 72 -84 65 -106
78 -118 68 -11 -10 7 -32 110 -130 67 -64 117 -117 109 -118 -17 0 -129 93
-237 197 -14 15 -44 7 -44 -11 0 -7 16 -27 35 -46 33 -32 45 -60 27 -60 -4 0
-23 16 -42 35 -41 42 -50 44 -50 7 0 -21 23 -55 85 -130 47 -55 85 -104 85
-107 0 -3 -7 -5 -14 -5 -11 0 -124 124 -163 179 -2 3 -13 -5 -25 -17 l-22 -21
33 -52 c47 -77 31 -98 -20 -26 -30 43 -47 57 -65 57 -13 0 -24 -2 -24 -5 0 -3
20 -41 45 -85 43 -76 54 -110 37 -110 -5 0 -33 43 -63 97 -75 133 -148 185
-100 72 21 -52 28 -105 13 -95 -5 3 -21 37 -37 76 -25 62 -31 70 -49 64 -12
-4 -22 -8 -24 -9 -2 -2 8 -32 23 -67 40 -95 41 -101 19 -96 -13 2 -25 24 -42
81 -24 76 -33 86 -61 68 -12 -8 -10 -27 12 -123 15 -62 27 -121 27 -130 0 -32
-19 -19 -29 20 -28 105 -49 208 -45 214 12 19 -18 5 -48 -22 -31 -29 -33 -34
-32 -93 1 -35 7 -81 13 -103 6 -21 11 -63 11 -92 0 -46 -4 -58 -29 -83 -31
-31 -55 -36 -94 -18 -49 22 -59 90 -31 222 19 95 16 146 -11 161 -11 6 -25 17
-31 25 -14 18 -18 2 -34 -141 -13 -110 -22 -140 -38 -123 -6 6 -2 58 9 130 25
172 28 159 -37 177 -63 18 -57 22 -85 -70 -7 -23 -18 -47 -26 -53 -18 -15 -17
0 3 73 18 61 15 74 -11 64 -16 -6 -25 -23 -115 -231 -60 -136 -60 -137 -78
-126 -10 6 3 45 57 165 39 87 71 162 71 167 0 5 -9 9 -20 9 -21 0 -37 -19 -81
-97 -27 -49 -49 -68 -49 -42 0 6 17 42 38 80 34 64 36 69 20 85 -15 15 -20 11
-74 -72 -134 -208 -129 -201 -132 -177 -3 19 94 189 150 262 20 26 25 81 7 81
-6 0 -27 -19 -48 -41 -59 -65 -67 -42 -11 30 l50 65 -40 38 c-21 21 -42 38
-45 38 -4 0 -43 -32 -88 -72 -52 -46 -82 -67 -85 -58 -5 13 44 64 122 127 37
30 41 53 10 53 -8 0 -73 -43 -145 -95 -120 -88 -159 -109 -159 -86 0 5 57 51
126 102 75 56 121 95 111 97 -24 5 -86 -31 -152 -88 -97 -84 -143 -97 -194
-54 -23 19 -31 34 -31 59 0 54 33 81 142 119 93 32 167 70 169 84 0 4 2 20 4
35 3 20 0 27 -8 24 -49 -21 -170 -67 -178 -67 -5 0 -9 4 -9 10 0 12 74 50 148
76 53 18 54 19 48 54 -7 48 -40 73 -88 68 -42 -4 -46 -1 -20 18 16 12 16 14
-5 36 -18 19 -21 31 -16 66 l6 42 -71 0 c-95 0 -103 18 -10 22 67 3 73 5 76
26 3 21 0 22 -52 22 -43 0 -56 3 -56 15 0 12 14 15 63 15 60 1 97 15 97 38 0
6 -17 12 -37 14 -52 4 -56 28 -4 28 34 0 41 3 41 19 0 27 -9 31 -144 66 -66
17 -121 36 -124 43 -6 19 28 15 150 -18 62 -16 113 -28 114 -27 1 1 4 11 6 21
2 16 -12 25 -91 52 -51 18 -98 37 -104 43 -27 27 13 23 108 -11 95 -34 106
-36 120 -21 9 9 13 19 8 23 -4 4 -53 24 -108 45 -107 39 -131 53 -117 67 4 4
63 -13 131 -38 85 -32 126 -43 133 -36 17 17 -58 64 -153 96 -104 36 -134 57
-149 101 -9 27 -8 40 4 63 17 34 34 42 80 42 37 0 88 -31 157 -95 74 -69 133
-92 158 -61 9 10 -1 21 -45 52 -31 21 -69 48 -85 59 -29 20 -39 45 -18 45 6 0
49 -27 96 -61 47 -33 92 -63 100 -66 15 -6 83 53 83 72 0 6 -11 22 -25 35 -25
23 -33 50 -16 50 5 0 21 -13 34 -30 28 -33 45 -38 53 -16 5 14 -13 42 -134
204 -32 43 -51 77 -46 82 14 14 24 3 104 -107 40 -57 77 -103 81 -103 5 0 13
9 19 20 9 16 4 30 -25 75 -34 54 -45 95 -25 95 5 0 24 -27 42 -60 31 -56 58
-75 73 -50 3 5 -17 54 -45 109 -47 94 -61 141 -42 141 4 0 34 -54 67 -120 49
-100 64 -121 89 -130 44 -15 48 -13 40 22 -6 28 -5 31 9 20 8 -7 20 -26 27
-42 14 -34 14 -34 40 -20 18 10 18 13 4 53 -22 62 -74 243 -74 257 0 10 3 10
15 0 14 -12 95 -247 95 -276 0 -8 9 -14 20 -14 25 0 25 -5 -5 170 -14 80 -25
153 -25 163 0 36 25 10 32 -34 4 -24 12 -71 18 -104 25 -154 33 -185 46 -185
17 0 16 -12 20 154 2 78 8 144 14 150 7 7 10 -13 11 -64 1 -41 2 -100 3 -132
1 -65 9 -79 26 -48 8 15 10 47 6 94 -20 242 -20 246 29 274 31 18 61 14 90
-11z m-395 -69 c0 -30 -25 -15 -28 17 -3 25 -2 27 12 16 9 -8 16 -22 16 -33z
m237 16 c-9 -9 -28 6 -21 18 4 6 10 6 17 -1 6 -6 8 -13 4 -17z m-477 -23 c12
-23 13 -61 2 -61 -7 0 -32 57 -32 73 0 14 20 6 30 -12z m880 -16 c0 -14 -4
-25 -10 -25 -11 0 -14 33 -3 43 11 11 13 8 13 -18z m-952 -56 c47 -83 63 -166
20 -102 -26 39 -68 120 -68 133 0 24 27 7 48 -31z m1267 -18 c-23 -37 -45 -53
-45 -33 0 11 41 76 54 84 21 14 17 -11 -9 -51z m-125 35 c0 -8 -4 -18 -10 -21
-5 -3 -10 3 -10 14 0 12 5 21 10 21 6 0 10 -6 10 -14z m-130 -103 c0 -32 -36
-97 -49 -89 -10 6 30 116 42 116 4 0 7 -12 7 -27z m-1116 1 c7 -19 -2 -37 -15
-29 -12 8 -12 45 0 45 5 0 12 -7 15 -16z m371 -15 c9 -17 15 -42 13 -57 -4
-26 -5 -25 -26 18 -12 25 -22 51 -22 58 0 22 19 12 35 -19z m1055 20 c0 -20
-21 -49 -36 -49 -13 0 -13 4 3 30 17 30 33 39 33 19z m161 -142 c-16 -16 -26
0 -10 19 9 11 15 12 17 4 2 -6 -1 -17 -7 -23z m-1832 -63 c82 -77 109 -112 81
-102 -21 7 -199 164 -199 176 -2 28 31 7 118 -74z m79 54 c16 -16 15 -28 -3
-28 -8 0 -15 2 -15 4 0 2 -3 11 -6 20 -7 19 7 21 24 4z m1941 -10 c0 -11 -130
-128 -151 -136 -4 -2 -8 2 -8 10 0 16 130 137 148 138 6 0 12 -6 11 -12z
m-329 -36 c0 -4 -14 -23 -32 -42 -21 -23 -33 -30 -36 -22 -2 8 8 27 24 43 27
28 44 37 44 21z m-1436 -103 c64 -56 116 -108 116 -115 0 -20 -11 -17 -41 9
-14 12 -67 58 -117 101 -83 72 -109 106 -83 106 6 0 62 -46 125 -101z m55 75
c19 -25 28 -54 16 -54 -8 0 -64 64 -65 73 0 17 30 5 49 -19z m1696 -84 c-3 -5
-11 -10 -16 -10 -6 0 -7 5 -4 10 3 6 11 10 16 10 6 0 7 -4 4 -10z m-2319 -255
c146 -55 203 -85 157 -85 -40 0 -308 106 -311 123 -2 10 -1 17 1 17 2 0 71
-25 153 -55z m158 39 c9 -3 16 -13 16 -21 0 -10 -6 -13 -16 -9 -9 3 -18 6 -20
6 -2 0 -4 7 -4 15 0 17 2 18 24 9z m2414 -45 c-4 -12 -112 -59 -136 -59 -30 0
-3 26 49 46 61 25 92 29 87 13z m-8 -104 c0 -8 -9 -15 -20 -15 -22 0 -27 15
-7 23 21 9 27 7 27 -8z m-200 -170 c0 -9 -9 -15 -25 -15 -26 0 -34 15 -12 23
23 10 37 7 37 -8z m-2104 -6 c46 -12 60 -29 22 -29 -50 0 -98 13 -98 26 0 17
17 17 76 3z m2135 -365 c22 -13 -7 -21 -55 -15 -29 3 -51 12 -54 20 -4 11 5
13 47 8 28 -3 56 -9 62 -13z m-1933 -46 c-4 -13 -259 -102 -325 -114 -25 -5
-33 -3 -33 8 0 10 36 26 108 47 59 18 132 41 162 51 66 22 93 24 88 8z m2082
-78 c0 -5 -5 -10 -11 -10 -5 0 -7 5 -4 10 3 6 8 10 11 10 2 0 4 -4 4 -10z
m-2480 -50 c0 -5 -11 -10 -25 -10 -14 0 -25 5 -25 10 0 6 11 10 25 10 14 0 25
-4 25 -10z m178 -41 c-2 -7 -84 -45 -183 -86 -133 -55 -181 -71 -189 -62 -7 7
-7 13 -1 15 6 3 84 36 175 74 163 68 205 81 198 59z m2290 -137 c3 -9 -2 -13
-14 -10 -9 1 -19 9 -22 16 -3 9 2 13 14 10 9 -1 19 -9 22 -16z m-1838 -81 c0
-5 -30 -44 -67 -88 -38 -43 -90 -104 -117 -136 -32 -39 -52 -55 -59 -48 -11
11 -14 6 122 169 83 99 121 131 121 103z m-250 -126 c0 -7 -6 -18 -14 -22 -7
-4 -46 -38 -87 -75 -70 -66 -100 -82 -98 -55 0 14 174 167 189 167 6 0 10 -7
10 -15z m-175 -4 c5 -9 -31 -41 -47 -41 -14 0 -8 23 10 36 21 16 29 17 37 5z
m1759 -91 c31 -36 51 -67 44 -69 -15 -5 -141 126 -133 139 9 15 26 2 89 -70z
m-1394 24 c0 -8 -90 -116 -105 -126 -5 -4 -11 -3 -13 2 -5 14 87 130 104 130
8 0 14 -3 14 -6z m450 -34 c0 -5 -19 -86 -41 -180 -41 -168 -60 -218 -71 -189
-5 14 72 346 86 368 9 14 26 15 26 1z m1130 -21 c7 -11 9 -23 7 -26 -7 -6 -57
27 -57 38 0 18 40 8 50 -12z m-1810 -86 c0 -10 -42 -53 -52 -53 -14 0 -9 15
12 38 20 21 40 29 40 15z m-198 -30 c24 -9 95 -47 158 -84 185 -107 166 -98
570 -251 30 -12 70 -32 89 -46 30 -22 33 -29 28 -61 -3 -20 -9 -46 -12 -58 -6
-20 -2 -22 52 -29 76 -11 330 -11 416 -1 65 8 68 10 62 30 -4 12 -9 38 -12 58
-4 32 -1 39 29 62 18 13 114 55 213 92 227 85 291 115 440 204 66 39 139 79
163 88 73 28 87 17 160 -126 71 -137 72 -149 20 -201 -42 -41 -206 -150 -279
-186 -66 -31 -89 -27 -89 15 0 16 -4 32 -9 35 -10 7 -151 -45 -151 -55 0 -4
18 -29 40 -57 22 -27 40 -57 40 -66 0 -11 -46 -38 -143 -85 -156 -74 -206 -93
-312 -115 -159 -34 -226 -41 -385 -40 -273 2 -463 46 -700 163 -75 36 -116 62
-118 74 -2 10 15 43 39 73 23 30 40 56 38 58 -8 6 -139 56 -148 56 -5 0 -11
-18 -15 -40 -9 -54 -24 -52 -143 16 -170 98 -263 176 -263 219 0 29 105 235
131 258 26 21 38 21 91 0z m1698 -27 c30 -45 39 -76 20 -76 -12 0 -70 101 -64
112 8 13 11 10 44 -36z m-221 -45 c22 -67 27 -106 12 -97 -14 9 -62 156 -55
167 10 17 21 -1 43 -70z m-729 65 c0 -3 -4 -8 -10 -11 -5 -3 -10 -1 -10 4 0 6
5 11 10 11 6 0 10 -2 10 -4z m454 -4 c11 -18 18 -152 8 -152 -11 0 -32 84 -32
130 0 28 13 40 24 22z m110 -178 c9 -25 7 -64 -4 -64 -5 0 -10 4 -10 9 0 5 -3
23 -6 40 -7 32 9 44 20 15z m-79 -72 c-3 -8 -5 -18 -5 -23 0 -6 -4 -7 -10 -4
-5 3 -10 23 -10 43 1 35 1 36 16 17 8 -11 12 -26 9 -33z"/>
<path d="M962 3430 c-13 -21 -38 -29 -26 -7 4 7 3 9 -2 4 -5 -5 -9 -13 -9 -17
0 -5 -22 -23 -50 -40 -47 -29 -39 -17 16 23 23 17 23 17 -11 1 -116 -55 -250
-163 -250 -201 0 -25 96 -223 108 -223 4 0 25 18 46 40 22 22 43 40 47 40 4 0
58 32 120 70 63 39 119 70 126 70 21 0 15 12 -23 51 -34 34 -38 45 -47 123
-11 87 -22 103 -45 66z m-272 -200 c-14 -10 -27 -16 -30 -14 -2 3 6 14 20 24
14 10 27 16 30 14 2 -3 -6 -14 -20 -24z m25 -70 c-10 -11 -23 -20 -29 -20 -6
1 0 10 13 20 30 26 39 26 16 0z m30 -80 c-3 -5 -12 -10 -18 -10 -7 0 -6 4 3
10 19 12 23 12 15 0z"/>
<path d="M1570 3439 c-133 -37 -202 -62 -243 -90 -76 -50 -45 -55 84 -13 63
20 142 39 177 42 63 5 67 8 56 50 -7 24 -19 26 -74 11z"/>
<path d="M2212 3425 c-19 -41 -15 -45 37 -45 28 0 102 -16 168 -35 65 -20 126
-38 136 -41 37 -11 15 23 -35 53 -47 28 -243 93 -280 93 -8 0 -20 -11 -26 -25z"/>
<path d="M2855 3403 c-15 -118 -18 -126 -52 -164 -20 -22 -34 -41 -32 -43 2
-2 24 -14 49 -26 82 -41 235 -138 264 -169 17 -17 32 -31 36 -31 3 0 30 49 60
109 47 97 52 113 42 135 -14 31 -97 97 -199 159 -82 48 -141 75 -85 37 17 -12
32 -24 32 -27 0 -7 -50 25 -76 48 -11 11 -23 19 -27 19 -3 0 -9 -21 -12 -47z
m331 -174 c19 -22 19 -22 -3 -10 -24 12 -39 31 -25 31 5 0 17 -10 28 -21z
m-31 -69 c10 -11 16 -20 13 -20 -3 0 -13 9 -23 20 -10 11 -16 20 -13 20 3 0
13 -9 23 -20z m-24 -87 c13 -16 12 -17 -3 -4 -17 13 -22 21 -14 21 2 0 10 -8
17 -17z"/>
<path d="M1111 3397 c-30 -12 -61 -33 -70 -46 -15 -24 -15 -24 14 -19 l29 6
-24 -18 c-26 -19 -22 -50 6 -50 10 0 14 -3 11 -7 -14 -13 16 -33 42 -27 15 3
21 2 15 -3 -7 -4 -13 -17 -15 -28 -3 -14 -39 -38 -119 -80 -155 -81 -161 -85
-155 -94 2 -5 -11 -16 -30 -25 -39 -19 -48 -41 -12 -32 l22 6 -22 -11 c-23
-12 -31 -29 -13 -29 23 0 101 37 180 86 127 77 248 135 418 198 85 32 174 66
198 76 46 20 60 36 22 27 l-23 -6 23 19 23 19 -58 -3 c-32 -3 -114 -22 -183
-45 -105 -34 -126 -38 -133 -26 -4 8 -18 15 -30 16 -12 0 -16 3 -9 6 6 2 12
14 12 25 0 16 -5 19 -21 15 -19 -5 -19 -4 -6 11 19 23 11 41 -16 35 -22 -5
-22 -5 -2 10 l20 16 -20 0 c-11 0 -44 -10 -74 -22z"/>
<path d="M2671 3403 c12 -15 12 -16 -3 -10 -22 8 -33 -10 -18 -28 10 -12 9
-15 -4 -15 -19 0 -22 -36 -3 -43 6 -3 0 -6 -15 -6 -14 -1 -28 -6 -30 -13 -5
-13 -8 -12 -186 41 -56 17 -108 28 -115 25 -8 -3 -25 0 -40 5 -43 17 -40 -5 3
-24 22 -10 38 -20 36 -22 -2 -3 -14 1 -26 7 -11 6 -26 9 -33 7 -16 -6 100 -58
241 -108 148 -52 269 -109 402 -189 98 -58 167 -90 194 -90 6 0 0 10 -14 21
-24 20 -24 20 -2 14 33 -9 27 11 -8 25 -16 7 -36 22 -43 34 -8 12 -57 44 -108
70 -135 70 -159 85 -159 106 0 10 -6 21 -12 24 -7 3 1 4 17 3 25 -2 30 2 29
19 0 16 4 20 18 16 29 -7 35 28 8 48 l-24 18 28 -5 c28 -6 28 -6 12 19 -10 16
-39 34 -75 47 -73 26 -89 27 -70 4z m224 -321 c-3 -3 -11 0 -18 7 -9 10 -8 11
6 5 10 -3 15 -9 12 -12z"/>
<path d="M1939 3184 c-10 -12 -16 -58 -21 -158 -3 -78 -9 -151 -13 -163 -7
-21 -4 -23 33 -23 l40 0 5 73 c3 39 10 105 17 146 12 76 6 147 -10 106 -6 -18
-8 -18 -22 8 -13 26 -15 27 -29 11z"/>
<path d="M1965 2800 c28 -4 54 -3 60 1 5 5 -16 8 -50 8 l-60 -2 50 -7z"/>
<path d="M1850 2774 c-118 -17 -172 -31 -243 -61 -103 -44 -117 -56 -112 -95
2 -17 6 -33 9 -35 3 -3 36 10 73 30 82 42 180 73 262 83 33 3 66 13 72 20 16
19 35 17 67 -5 38 -27 169 -39 197 -17 16 11 18 19 10 32 -8 12 -26 17 -68 19
-37 1 -63 7 -75 18 -14 13 -36 17 -93 16 -41 -1 -85 -3 -99 -5z m-255 -89
c-27 -13 -54 -24 -60 -24 -5 1 13 11 40 24 28 13 55 24 60 24 6 -1 -12 -11
-40 -24z"/>
<path d="M2330 2755 c0 -14 21 -45 30 -45 18 0 10 29 -10 40 -11 6 -20 8 -20
5z"/>
<path d="M1495 2739 c-5 -7 -1 -18 11 -26 24 -17 33 2 11 24 -11 12 -16 12
-22 2z"/>
<path d="M2280 2725 c0 -12 28 -35 44 -35 11 0 6 19 -10 34 -19 20 -34 20 -34
1z"/>
<path d="M2395 2709 c-4 -6 -5 -13 -2 -16 7 -7 27 6 27 18 0 12 -17 12 -25 -2z"/>
<path d="M1460 2700 c0 -5 9 -10 21 -10 11 0 17 5 14 10 -3 6 -13 10 -21 10
-8 0 -14 -4 -14 -10z"/>
<path d="M2240 2701 c0 -10 24 -21 43 -21 7 0 3 7 -7 15 -22 17 -36 19 -36 6z"/>
<path d="M1790 2675 c-80 -16 -183 -57 -245 -96 -44 -28 -47 -32 -41 -61 8
-43 13 -45 44 -24 62 40 172 87 237 101 39 8 116 15 173 15 95 0 105 2 129 25
15 13 24 28 19 32 -4 4 -48 8 -99 10 -51 1 -105 4 -122 7 -16 3 -59 -1 -95 -9z
m-160 -110 c0 -2 -18 -14 -40 -25 -22 -11 -40 -18 -40 -15 0 2 17 13 38 24 42
23 42 23 42 16z m-80 -9 c0 -2 -7 -7 -16 -10 -8 -3 -12 -2 -9 4 6 10 25 14 25
6z"/>
<path d="M2420 2675 c-16 -19 -3 -40 16 -24 15 13 19 39 5 39 -5 0 -14 -7 -21
-15z"/>
<path d="M2288 2661 c-16 -9 -28 -20 -28 -26 1 -5 30 -28 66 -50 61 -37 165
-133 215 -198 12 -16 33 -33 46 -38 20 -7 24 -15 21 -42 -2 -17 8 -60 21 -94
22 -60 25 -63 57 -63 31 0 33 2 24 24 -5 13 -6 26 -3 29 3 3 -7 38 -22 77 -19
49 -31 70 -41 66 -18 -7 -30 14 -14 24 10 6 5 19 -20 52 -41 52 -121 137 -129
136 -21 -2 -31 4 -31 20 0 23 -56 66 -76 58 -8 -3 -13 -2 -10 3 6 9 -10 25
-34 33 -8 2 -27 -2 -42 -11z m218 -132 c19 -22 19 -22 -3 -8 -13 8 -23 17 -23
21 0 12 6 9 26 -13z"/>
<path d="M1457 2663 c-12 -12 -7 -22 8 -17 8 4 15 10 15 15 0 11 -14 12 -23 2z"/>
<path d="M2202 2658 c5 -15 37 -18 41 -3 1 6 -9 12 -22 13 -16 3 -22 -1 -19
-10z"/>
<path d="M2165 2631 c-3 -5 -1 -12 5 -16 12 -7 30 2 30 16 0 12 -27 12 -35 0z"/>
<path d="M873 2618 c-43 -21 -25 -57 47 -93 32 -16 87 -54 182 -127 20 -15 39
-28 42 -28 6 0 36 55 36 64 0 8 -38 27 -63 31 -12 2 -47 31 -77 63 -51 55
-116 103 -136 101 -5 0 -19 -5 -31 -11z"/>
<path d="M1445 2609 c-4 -6 -4 -13 -1 -16 8 -8 36 5 36 17 0 13 -27 13 -35 -1z"/>
<path d="M2102 2609 c3 -8 18 -15 34 -17 33 -4 24 11 -15 23 -17 5 -22 4 -19
-6z"/>
<path d="M2192 2595 l-34 -23 79 -39 c112 -55 213 -157 276 -280 47 -92 75
-123 109 -123 22 0 23 -4 -8 80 -18 46 -31 69 -39 66 -13 -5 -25 22 -25 58 0
40 -146 190 -242 249 -34 20 -66 37 -72 37 -6 -1 -26 -12 -44 -25z"/>
<path d="M2910 2564 c-22 -20 -43 -47 -46 -61 -4 -16 -29 -37 -76 -64 -71 -42
-89 -62 -70 -81 7 -7 19 -5 39 9 30 20 57 33 111 53 17 7 32 16 32 20 0 5 12
11 28 15 37 8 106 57 110 78 4 22 -41 67 -68 67 -11 0 -38 -16 -60 -36z"/>
<path d="M1898 2583 c18 -2 45 -2 60 0 15 2 0 4 -33 4 -33 0 -45 -2 -27 -4z"/>
<path d="M1466 2571 c-4 -7 -5 -15 -2 -18 9 -9 19 4 14 18 -4 11 -6 11 -12 0z"/>
<path d="M2060 2571 c0 -10 24 -21 47 -21 13 0 13 3 3 15 -13 16 -50 21 -50 6z"/>
<path d="M1826 2542 c-4 -13 -5 -26 -2 -29 10 -11 18 4 14 29 l-4 23 -8 -23z"/>
<path d="M1631 2520 c-75 -41 -123 -79 -115 -92 4 -6 25 -8 54 -4 40 5 58 1
126 -30 43 -19 93 -49 111 -66 l32 -31 20 46 c11 25 23 62 26 80 6 30 3 37
-22 54 -15 11 -38 23 -49 27 -12 4 -29 15 -39 26 -26 29 -80 25 -144 -10z"/>
<path d="M1860 2527 c0 -23 25 -55 35 -45 2 2 1 17 -3 33 -10 37 -32 45 -32
12z"/>
<path d="M2027 2543 c-13 -12 -7 -23 12 -23 26 0 35 16 15 24 -19 7 -19 7 -27
-1z"/>
<path d="M2100 2530 c-14 -10 -46 -29 -70 -42 -52 -27 -58 -46 -35 -113 27
-80 44 -105 98 -139 47 -30 60 -34 112 -32 33 2 77 8 98 15 34 12 37 16 37 50
0 21 3 65 6 99 6 57 5 62 -20 85 -34 31 -158 97 -182 97 -11 0 -30 -9 -44 -20z"/>
<path d="M1470 2504 c0 -8 5 -12 10 -9 6 3 10 10 10 16 0 5 -4 9 -10 9 -5 0
-10 -7 -10 -16z"/>
<path d="M1914 2504 c3 -9 6 -18 6 -20 0 -2 9 -4 20 -4 18 0 19 3 10 20 -13
24 -45 28 -36 4z"/>
<path d="M1972 2508 c5 -15 37 -18 41 -3 1 6 -9 12 -22 13 -16 3 -22 -1 -19
-10z"/>
<path d="M1480 2449 c0 -11 5 -17 10 -14 6 3 10 13 10 21 0 8 -4 14 -10 14 -5
0 -10 -9 -10 -21z"/>
<path d="M1921 2430 c-1 -19 -4 -46 -7 -60 -6 -25 -6 -25 10 -5 l17 20 -4 -20
c-3 -11 -8 -28 -12 -37 -6 -15 -2 -18 29 -18 41 0 44 10 21 67 -8 19 -15 47
-15 62 -1 24 -2 25 -14 8 -14 -18 -14 -18 -19 0 -3 10 -5 2 -6 -17z"/>
<path d="M1322 2430 c-10 -17 -10 -20 3 -20 8 0 15 2 15 4 0 2 3 11 6 20 9 23
-9 20 -24 -4z"/>
<path d="M2390 2341 c-16 -30 -12 -36 10 -16 21 19 26 35 10 35 -5 0 -14 -9
-20 -19z"/>
<path d="M1296 2334 c-33 -8 -78 -26 -102 -41 -47 -30 -94 -95 -94 -130 0 -87
102 -134 169 -77 17 14 31 30 31 35 0 6 -10 0 -22 -11 -46 -43 -110 -37 -138
13 -14 25 -13 30 10 74 45 86 130 122 303 130 59 3 107 2 107 -2 0 -4 -12 -26
-26 -49 -14 -22 -62 -102 -105 -176 -120 -206 -175 -260 -266 -260 -46 0 -63
14 -63 51 0 20 8 30 33 43 l32 16 -31 0 c-33 0 -84 -38 -84 -63 0 -8 8 -25 19
-38 15 -19 30 -24 84 -27 111 -7 182 42 265 181 22 37 42 64 45 60 3 -4 10
-28 17 -53 34 -129 100 -205 166 -192 14 2 40 20 58 38 l33 34 21 -25 c19 -22
28 -24 82 -21 34 2 62 5 64 7 32 47 66 110 62 117 -3 5 6 25 19 45 30 43 30
47 6 47 -15 0 -33 -23 -67 -86 -51 -93 -93 -131 -126 -113 -12 6 -18 21 -18
43 0 30 4 35 45 50 50 20 85 57 85 92 0 21 -5 24 -34 24 -47 0 -77 -28 -130
-119 -46 -80 -76 -111 -107 -111 -38 0 -111 124 -126 216 -5 30 -4 31 53 43
120 26 195 74 208 131 9 38 -21 68 -97 95 -59 22 -84 25 -195 24 -73 0 -152
-7 -186 -15z m405 -37 c46 -29 27 -98 -40 -143 -35 -23 -165 -53 -177 -41 -5
4 86 165 109 195 13 16 75 9 108 -11z m197 -255 c5 -16 -61 -82 -82 -82 -24 0
-20 12 20 59 35 41 54 47 62 23z"/>
<path d="M1626 2234 c-4 -10 -1 -14 6 -12 15 5 23 28 10 28 -5 0 -13 -7 -16
-16z"/>
<path d="M2478 2256 c20 -36 38 -63 40 -61 6 6 -60 125 -69 125 -4 0 9 -29 29
-64z"/>
<path d="M1869 2281 c13 -8 111 -4 120 5 2 2 -27 4 -65 4 -43 0 -64 -4 -55 -9z"/>
<path d="M2396 2233 c-22 -24 -51 -47 -65 -49 -14 -3 -39 -17 -55 -31 -23 -20
-26 -27 -15 -34 22 -14 32 -11 77 22 25 18 61 33 92 38 63 10 69 16 42 44 -12
13 -22 31 -22 40 0 26 -11 19 -54 -30z"/>
<path d="M1394 2245 c-7 -17 4 -37 17 -30 5 4 14 15 19 26 9 16 7 19 -10 19
-11 0 -23 -7 -26 -15z"/>
<path d="M1858 2254 c-10 -3 -18 -12 -18 -19 0 -11 17 -14 74 -14 76 0 123
-13 177 -51 16 -12 29 -18 29 -14 0 4 11 -3 25 -16 39 -37 43 -14 4 26 -54 57
-122 87 -204 90 -38 2 -78 1 -87 -2z m95 -11 c-7 -2 -19 -2 -25 0 -7 3 -2 5
12 5 14 0 19 -2 13 -5z"/>
<path d="M1357 2243 c-4 -3 -7 -11 -7 -17 0 -6 5 -5 12 2 6 6 9 14 7 17 -3 3
-9 2 -12 -2z"/>
<path d="M1234 2194 c-4 -10 -9 -22 -11 -26 -2 -5 0 -8 6 -8 11 0 26 39 17 47
-3 3 -9 -3 -12 -13z"/>
<path d="M1858 2183 c-6 -7 -15 -13 -20 -13 -5 0 -38 -24 -72 -52 -43 -36 -65
-62 -68 -81 -4 -24 0 -22 43 27 58 65 93 81 157 72 26 -3 77 -7 115 -8 57 -3
67 -1 67 14 0 10 -11 19 -30 23 -16 4 -30 11 -30 17 0 6 -10 8 -24 4 -12 -3
-26 -2 -30 2 -13 12 -97 8 -108 -5z"/>
<path d="M2185 2160 c10 -11 20 -20 22 -20 2 0 -1 9 -7 20 -6 11 -16 20 -22
20 -6 0 -3 -9 7 -20z"/>
<path d="M2470 2146 c0 -8 5 -18 10 -21 6 -3 10 1 10 9 0 8 -4 18 -10 21 -5 3
-10 -1 -10 -9z"/>
<path d="M2335 2057 c-26 -15 -51 -41 -72 -77 -17 -30 -40 -69 -51 -87 -14
-22 -16 -30 -6 -26 8 3 14 9 14 14 0 17 15 9 25 -13 15 -34 41 -33 76 2 17 17
32 30 33 28 1 -2 7 -15 14 -30 6 -16 18 -28 26 -28 17 0 66 39 49 40 -6 0 -15
-4 -18 -10 -3 -5 -10 -10 -16 -10 -17 0 -9 50 16 100 30 59 30 60 5 60 -14 0
-29 -17 -51 -55 -29 -52 -80 -105 -100 -105 -15 0 -10 49 10 88 10 20 36 54
57 75 34 34 43 38 74 32 33 -5 34 -4 16 10 -27 21 -54 19 -101 -8z"/>
<path d="M2647 2040 c-15 -17 -29 -30 -32 -30 -3 0 -4 1 -3 3 1 1 -4 12 -11
25 -15 28 -42 28 -67 1 -19 -22 -19 -22 3 -10 12 6 25 11 29 11 16 0 -6 -92
-32 -136 -29 -46 -39 -55 -79 -70 -17 -6 -18 -8 -3 -11 25 -6 54 13 75 47 18
32 33 39 33 17 0 -18 32 -47 52 -47 19 0 68 38 68 52 0 7 -11 1 -25 -12 -20
-19 -30 -22 -43 -14 -27 17 -25 56 6 114 22 44 34 56 57 60 30 5 37 23 12 28
-8 2 -26 -11 -40 -28z"/>
<path d="M2042 2030 c-23 -17 -42 -33 -42 -36 0 -4 7 -1 15 6 27 22 29 2 7
-53 -23 -54 -29 -97 -13 -97 11 0 72 99 77 125 2 11 7 35 10 53 8 40 -2 40
-54 2z"/>
<path d="M2184 2044 c-16 -8 -36 -22 -44 -30 -13 -13 -13 -14 3 -8 22 8 22 -4
-3 -57 -33 -74 -24 -109 27 -109 13 0 13 2 2 17 -19 22 -14 45 27 125 19 37
30 69 26 72 -5 3 -22 -2 -38 -10z"/>
<path d="M1624 2026 c-9 -23 0 -89 13 -93 13 -5 29 79 18 96 -9 15 -25 14 -31
-3z m23 -18 c-3 -8 -6 -5 -6 6 -1 11 2 17 5 13 3 -3 4 -12 1 -19z"/>
<path d="M2487 1959 c-16 -27 -26 -49 -23 -49 7 0 59 90 54 95 -2 2 -16 -18
-31 -46z"/>
<path d="M2832 1953 c-18 -32 -16 -51 4 -31 9 8 14 24 12 34 -4 18 -5 17 -16
-3z"/>
<path d="M1392 1857 c-23 -23 -42 -47 -42 -52 0 -6 20 -23 44 -38 48 -30 82
-30 110 1 13 15 11 23 -20 72 -19 30 -38 56 -42 58 -4 1 -27 -17 -50 -41z"/>
<path d="M2705 1814 c-11 -8 -26 -19 -33 -23 -19 -11 -73 -172 -67 -198 3 -14
-1 -27 -11 -35 -32 -24 -92 -87 -117 -120 -19 -26 -23 -42 -19 -75 4 -46 16
-56 25 -22 3 12 10 18 15 15 26 -16 176 197 189 269 3 17 14 44 23 60 10 17
21 48 24 70 l6 40 -14 -40 -15 -40 5 40 c3 22 8 48 11 58 5 21 4 21 -22 1z"/>
<path d="M1926 1789 c-10 -6 -43 -13 -74 -15 -30 -2 -58 -6 -60 -9 -8 -8 15
-28 35 -31 10 -1 43 -9 73 -17 35 -10 61 -12 72 -6 9 5 23 6 31 4 7 -3 20 1
27 10 7 8 19 15 26 15 8 0 14 5 14 10 0 6 7 10 15 10 20 0 19 29 0 36 -8 4
-22 1 -30 -6 -14 -12 -58 -10 -95 4 -8 3 -23 1 -34 -5z"/>
<path d="M1300 1781 c0 -6 5 -13 10 -16 6 -3 10 1 10 9 0 9 -4 16 -10 16 -5 0
-10 -4 -10 -9z"/>
<path d="M2339 1771 c20 -36 81 -55 96 -31 6 10 -28 28 -83 45 -22 6 -23 5
-13 -14z"/>
<path d="M1346 1771 c-3 -5 1 -14 9 -21 12 -10 15 -10 15 3 0 19 -16 31 -24
18z"/>
<path d="M2243 1768 c-6 -7 -16 -24 -23 -37 -12 -23 -12 -24 26 -17 30 5 35 4
24 -4 -12 -9 -11 -10 7 -5 12 3 35 -1 52 -9 40 -21 48 -20 26 4 -10 11 -15 20
-11 20 3 0 -1 11 -9 24 -9 14 -24 24 -33 24 -9 0 -24 2 -33 6 -9 4 -20 1 -26
-6z"/>
<path d="M2572 1766 c-5 -6 -18 -36 -31 -66 -12 -30 -40 -85 -63 -122 -35 -59
-39 -73 -33 -105 l7 -38 43 50 c34 38 45 60 47 90 2 31 7 39 20 37 9 -1 19 2
23 8 7 11 55 142 55 150 0 10 -60 7 -68 -4z"/>
<path d="M1508 1747 c-35 -24 -47 -52 -30 -69 7 -7 20 -4 40 11 17 11 35 21
42 21 6 0 8 5 5 10 -3 6 -4 10 -1 10 2 0 13 3 23 6 15 5 15 4 3 -5 -17 -12 -1
-15 18 -3 9 6 6 11 -10 19 -45 22 -57 22 -90 0z"/>
<path d="M1695 1759 c-12 -18 25 -47 104 -85 69 -33 82 -36 146 -32 46 2 86
11 115 26 47 23 110 72 93 72 -6 0 -16 -7 -23 -15 -7 -8 -16 -15 -21 -15 -5 0
5 13 23 30 44 39 15 39 -30 -1 -49 -43 -97 -61 -164 -63 -32 0 -58 -5 -58 -9
0 -17 -45 7 -106 54 -67 53 -70 54 -79 38z"/>
<path d="M2504 1734 c3 -8 6 -18 6 -20 0 -2 5 -4 10 -4 16 0 11 27 -6 34 -12
5 -15 2 -10 -10z"/>
<path d="M1392 1724 c1 -9 9 -19 16 -22 9 -3 13 2 10 14 -1 9 -9 19 -16 22 -9
3 -13 -2 -10 -14z"/>
<path d="M1150 1725 c0 -15 66 -168 92 -214 40 -69 136 -167 213 -216 33 -21
54 -40 47 -42 -18 -7 -4 -23 19 -23 23 0 79 27 79 38 0 4 -24 20 -54 35 -58
30 -166 131 -218 203 -17 24 -42 51 -55 59 -16 11 -23 25 -23 46 0 33 -20 79
-44 98 -13 11 -16 11 -16 0 -1 -10 -4 -9 -14 4 -12 16 -26 23 -26 12z"/>
<path d="M2450 1710 c0 -16 38 -32 46 -19 7 12 -12 29 -33 29 -7 0 -13 -4 -13
-10z"/>
<path d="M1426 1693 c-8 -21 10 -41 24 -27 11 11 3 44 -10 44 -4 0 -11 -8 -14
-17z"/>
<path d="M1577 1686 c-74 -20 -81 -32 -79 -128 2 -81 3 -84 38 -115 32 -28
150 -93 170 -93 4 0 22 12 41 26 18 14 54 34 79 46 l47 20 -6 50 c-9 72 -56
148 -109 175 -56 29 -121 36 -181 19z"/>
<path d="M1250 1674 c0 -25 13 -44 30 -44 25 0 43 -25 35 -50 -20 -62 220
-290 306 -290 14 0 34 9 44 20 21 23 21 22 -22 44 -38 19 -47 20 -37 5 4 -7
-2 -7 -17 1 -34 18 -38 24 -9 15 36 -10 16 8 -42 38 -62 33 -92 57 -108 86 -7
14 -25 35 -40 48 -15 12 -35 40 -43 60 -8 21 -26 48 -39 59 -25 23 -58 28 -58
8z"/>
<path d="M2094 1664 c-23 -13 -53 -39 -66 -57 -23 -30 -58 -116 -58 -143 0
-15 154 -114 178 -114 25 0 108 41 160 79 l42 31 0 89 c0 105 -7 114 -94 130
-84 15 -115 12 -162 -15z"/>
<path d="M1350 1671 c0 -6 4 -13 10 -16 6 -3 7 1 4 9 -7 18 -14 21 -14 7z"/>
<path d="M2427 1673 c-13 -12 -7 -23 13 -23 11 0 20 7 20 15 0 15 -21 21 -33
8z"/>
<path d="M1457 1643 c-14 -13 -7 -42 8 -37 8 4 15 15 15 25 0 19 -11 25 -23
12z"/>
<path d="M2410 1625 c-17 -21 -8 -28 15 -11 11 8 14 15 8 19 -6 4 -16 0 -23
-8z"/>
<path d="M2470 1620 c-6 -11 -8 -20 -6 -20 3 0 10 9 16 20 6 11 8 20 6 20 -3
0 -10 -9 -16 -20z"/>
<path d="M1908 1613 c17 -2 47 -2 65 0 17 2 3 4 -33 4 -36 0 -50 -2 -32 -4z"/>
<path d="M1466 1583 c-9 -9 -7 -33 3 -33 12 0 22 28 12 34 -5 3 -11 3 -15 -1z"/>
<path d="M1911 1532 c1 -32 0 -63 -3 -68 -3 -5 -2 -34 1 -64 6 -54 7 -55 40
-58 31 -3 33 -2 27 20 -29 92 -29 100 -12 152 21 70 21 71 -20 74 l-35 2 2
-58z"/>
<path d="M2415 1580 c-3 -5 -1 -10 4 -10 6 0 11 5 11 10 0 6 -2 10 -4 10 -3 0
-8 -4 -11 -10z"/>
<path d="M1097 1529 c-15 -12 -74 -37 -130 -56 -56 -19 -105 -38 -110 -42 -14
-14 33 -51 65 -51 16 0 73 20 125 45 52 25 101 45 108 45 20 0 19 15 -2 51
-20 34 -20 34 -56 8z"/>
<path d="M2397 1526 c-3 -8 -3 -17 0 -20 7 -7 33 13 33 25 0 15 -27 10 -33 -5z"/>
<path d="M1460 1521 c0 -6 5 -13 10 -16 6 -3 10 1 10 9 0 9 -4 16 -10 16 -5 0
-10 -4 -10 -9z"/>
<path d="M2685 1479 c-4 -11 -5 -22 -3 -23 1 -1 23 -14 48 -29 25 -14 70 -49
100 -76 30 -28 72 -58 93 -68 35 -15 42 -15 66 -2 34 19 41 65 12 86 -12 8
-19 18 -16 22 5 9 -42 21 -85 21 -26 0 -56 21 -45 32 3 3 -16 11 -42 19 -26 7
-59 19 -73 26 -35 18 -48 16 -55 -8z"/>
<path d="M2403 1475 c-3 -9 -3 -18 0 -21 9 -9 27 6 27 22 0 19 -19 18 -27 -1z"/>
<path d="M2407 1423 c-10 -10 -8 -33 3 -33 5 0 14 9 20 20 8 15 8 20 -3 20 -8
0 -17 -3 -20 -7z"/>
<path d="M2233 1364 c-96 -53 -197 -75 -331 -73 -104 2 -115 0 -135 -19 -11
-12 -19 -24 -16 -27 14 -13 131 -17 154 -5 21 11 27 11 44 -4 17 -16 24 -16
107 3 104 22 190 55 187 70 -2 6 4 8 12 5 8 -4 28 7 46 25 17 17 26 31 20 31
-6 0 -11 7 -11 15 0 20 -4 19 -77 -21z"/>
<path d="M2028 1378 c-7 -16 7 -45 14 -32 3 5 2 18 -2 28 -5 16 -8 17 -12 4z"/>
<path d="M2410 1365 c-7 -9 -10 -18 -7 -21 10 -11 37 5 37 21 0 19 -14 19 -30
0z"/>
<path d="M1780 1340 c0 -5 9 -10 20 -10 11 0 20 5 20 10 0 6 -9 10 -20 10 -11
0 -20 -4 -20 -10z"/>
<path d="M2071 1341 c-8 -6 -9 -11 -3 -15 6 -3 14 -1 17 5 9 14 2 20 -14 10z"/>
<path d="M1740 1316 c0 -18 27 -29 36 -14 4 5 0 14 -7 19 -20 13 -29 11 -29
-5z"/>
<path d="M2422 1318 c-16 -16 -15 -28 2 -28 16 0 29 27 17 34 -4 3 -13 0 -19
-6z"/>
<path d="M2255 1289 c-38 -17 -108 -39 -155 -50 -47 -11 -107 -29 -134 -40
-46 -17 -51 -18 -67 -3 -11 10 -52 21 -99 27 -77 10 -81 10 -105 -13 -35 -33
-31 -48 18 -61 65 -18 382 -18 437 0 53 17 115 58 129 86 5 11 20 35 31 53 12
17 20 32 18 32 -1 -1 -34 -14 -73 -31z m-465 -119 c20 -6 21 -8 5 -8 -11 0
-31 4 -45 8 -20 6 -21 8 -5 8 11 0 31 -4 45 -8z"/>
<path d="M1684 1288 c-8 -12 15 -29 34 -25 20 3 16 20 -7 29 -12 4 -23 3 -27
-4z"/>
<path d="M2420 1255 c-7 -9 -10 -18 -7 -22 8 -7 37 15 37 28 0 14 -16 11 -30
-6z"/>
<path d="M1640 1250 c0 -15 27 -23 47 -16 15 6 15 8 3 16 -20 13 -50 12 -50 0z"/>
<path d="M1607 1224 c-10 -11 3 -24 24 -24 23 0 25 15 3 24 -19 7 -19 7 -27 0z"/>
<path d="M2400 1195 c0 -8 7 -15 15 -15 8 0 15 7 15 15 0 8 -7 15 -15 15 -8 0
-15 -7 -15 -15z"/>
<path d="M1560 1192 c0 -10 22 -32 32 -32 15 0 8 28 -8 34 -21 8 -24 8 -24 -2z"/>
<path d="M1512 1158 c3 -7 13 -15 22 -16 12 -3 17 1 14 10 -3 7 -13 15 -22 16
-12 3 -17 -1 -14 -10z"/>
<path d="M2355 1160 c-3 -6 1 -13 10 -16 19 -8 30 0 20 15 -8 14 -22 14 -30 1z"/>
<path d="M1924 1044 c3 -9 6 -18 6 -21 0 -3 7 0 15 7 21 18 19 30 -6 30 -15 0
-19 -4 -15 -16z"/>
<path d="M1932 978 c-7 -7 -12 -21 -12 -32 0 -17 -2 -18 -9 -7 -7 11 -11 5
-16 -22 -9 -46 16 -219 32 -224 25 -9 53 35 53 84 0 58 -22 213 -30 213 -3 0
-11 -5 -18 -12z m-12 -132 c0 -26 -6 -18 -14 19 -5 22 -4 26 4 15 5 -8 10 -24
10 -34z"/>
<path d="M780 952 c0 -5 10 -14 23 -21 l22 -11 -22 6 c-13 3 -23 1 -23 -5 0
-6 10 -16 23 -22 12 -7 31 -22 43 -34 11 -12 77 -52 146 -89 100 -53 127 -71
130 -91 4 -20 1 -24 -16 -22 -15 1 -22 -4 -24 -20 -2 -14 -8 -20 -18 -16 -26
10 -29 -28 -4 -47 l24 -18 -27 5 c-31 6 -34 -1 -9 -27 19 -20 112 -60 140 -60
15 1 15 3 -3 16 -20 16 -20 16 2 10 29 -9 39 11 18 34 -16 18 -16 18 6 13 19
-5 21 -3 17 19 -4 20 1 27 23 37 24 11 42 8 141 -24 62 -20 137 -38 166 -40
29 -3 58 -7 63 -10 5 -4 9 -2 9 4 0 6 -13 17 -30 26 -37 19 -39 28 -4 14 31
-11 44 -5 17 9 -24 13 -184 75 -248 97 -92 30 -219 88 -325 148 -174 99 -204
114 -232 121 -16 4 -28 2 -28 -2z"/>
<path d="M3015 943 c-22 -9 -78 -40 -125 -68 -154 -94 -216 -123 -464 -216
-174 -65 -223 -88 -193 -89 10 0 27 5 38 10 10 6 19 8 19 6 0 -3 -17 -14 -37
-25 l-38 -20 65 3 c53 3 204 44 308 83 6 3 12 -2 12 -11 0 -11 9 -16 28 -17
15 0 21 -3 15 -6 -19 -7 -16 -43 3 -43 13 0 14 -3 4 -15 -15 -18 -3 -38 17
-30 13 4 14 3 3 -10 -10 -12 -10 -15 3 -15 27 0 121 40 135 57 16 23 15 36 -3
29 -20 -7 -19 4 3 20 16 13 16 15 -5 33 -13 11 -23 24 -23 29 0 16 -22 20 -50
11 -22 -8 -23 -8 -7 5 9 7 17 20 17 29 0 10 45 39 122 79 66 35 133 75 147 89
14 14 36 31 49 38 31 16 28 32 -5 26 l-28 -5 28 11 c27 11 37 29 15 28 -7 0
-31 -7 -53 -16z"/>
<path d="M681 825 c-28 -58 -51 -113 -51 -124 0 -35 143 -148 260 -205 45 -22
51 -23 31 -6 -13 11 -19 20 -13 20 5 0 24 -13 42 -30 18 -16 36 -30 40 -30 4
0 11 32 15 72 8 82 15 100 57 145 l30 31 -43 22 c-89 45 -238 142 -270 175
-19 19 -37 35 -40 35 -3 0 -29 -47 -58 -105z m83 59 c5 -14 4 -15 -9 -4 -17
14 -19 20 -6 20 5 0 12 -7 15 -16z m-19 -64 c3 -6 -1 -7 -9 -4 -18 7 -21 14
-7 14 6 0 13 -4 16 -10z m-29 -81 c19 -22 19 -22 -3 -8 -13 8 -23 17 -23 21 0
12 6 9 26 -13z m-10 -86 c-6 -6 -46 20 -46 30 0 4 11 0 25 -9 14 -9 24 -19 21
-21z"/>
<path d="M3084 899 c-34 -36 -155 -115 -245 -160 -35 -18 -66 -33 -68 -35 -2
-2 11 -20 28 -40 38 -43 51 -73 51 -118 0 -53 11 -96 25 -96 21 0 277 158 312
192 18 18 36 41 39 51 4 13 -13 58 -47 128 -30 60 -57 109 -60 109 -3 0 -18
-14 -35 -31z m56 -63 c0 -2 -8 -10 -17 -17 -16 -13 -17 -12 -4 4 13 16 21 21
21 13z m40 -81 c0 -2 -10 -10 -22 -16 -21 -11 -22 -11 -9 4 13 16 31 23 31 12z
m4 -90 c-10 -8 -23 -14 -29 -14 -5 -1 1 8 15 19 14 10 27 17 29 14 3 -2 -4
-11 -15 -19z m-184 -130 c0 -2 -10 -9 -22 -15 -22 -11 -22 -10 -4 4 21 17 26
19 26 11z"/>
<path d="M1285 591 c-14 -23 103 -81 237 -117 111 -30 114 -30 122 3 9 33 -1
39 -73 47 -31 4 -105 22 -166 41 -128 41 -112 37 -120 26z"/>
<path d="M2515 584 c-27 -7 -77 -22 -110 -34 -33 -12 -93 -24 -132 -27 -40 -3
-73 -10 -73 -14 0 -20 25 -59 37 -59 25 0 166 41 228 66 107 44 143 93 50 68z"/>
<path d="M2576 561 c-45 -49 -198 -104 -386 -137 -116 -20 -380 -23 -495 -5
-173 27 -363 90 -401 132 -27 30 -39 23 -57 -33 -10 -32 -37 -77 -67 -113 -27
-33 -50 -65 -50 -72 0 -6 16 -21 35 -33 52 -32 278 -106 385 -125 52 -9 106
-21 120 -26 41 -14 -77 2 -160 22 -41 9 -76 16 -78 14 -2 -2 27 -13 64 -25
217 -67 532 -77 791 -25 107 22 203 54 210 71 3 8 41 25 85 38 78 24 168 69
168 85 0 4 -24 40 -54 79 -30 39 -62 94 -71 122 -9 27 -18 50 -19 50 -2 0 -10
-8 -20 -19z m-1272 -50 c-2 -3 -12 3 -22 13 -16 17 -16 18 5 5 12 -7 20 -15
17 -18z m1271 9 c-3 -5 -11 -10 -16 -10 -6 0 -7 5 -4 10 3 6 11 10 16 10 6 0
7 -4 4 -10z m-1300 -78 c-3 -3 -11 0 -18 7 -9 10 -8 11 6 5 10 -3 15 -9 12
-12z m1330 8 c-3 -5 -11 -10 -16 -10 -6 0 -7 5 -4 10 3 6 11 10 16 10 6 0 7
-4 4 -10z m-1070 -14 c28 -8 41 -14 30 -14 -21 0 -107 25 -90 27 6 0 33 -6 60
-13z m812 -2 c-3 -3 -12 -4 -19 -1 -8 3 -5 6 6 6 11 1 17 -2 13 -5z m-40 -10
c-3 -3 -12 -4 -19 -1 -8 3 -5 6 6 6 11 1 17 -2 13 -5z m-520 -30 c-3 -3 -12
-4 -19 -1 -8 3 -5 6 6 6 11 1 17 -2 13 -5z m316 -1 c-7 -2 -19 -2 -25 0 -7 3
-2 5 12 5 14 0 19 -2 13 -5z m557 -2 c0 -5 -7 -12 -16 -15 -14 -5 -15 -4 -4 9
14 17 20 19 20 6z m-1435 -11 c3 -6 -1 -7 -9 -4 -18 7 -21 14 -7 14 6 0 13 -4
16 -10z m1 -88 c-5 -4 -66 26 -66 33 0 3 16 -3 35 -12 19 -9 33 -18 31 -21z
m572 25 c7 3 12 -5 12 -21 0 -21 5 -26 24 -26 15 0 27 7 31 19 11 36 116 38
130 3 5 -15 9 -13 26 8 l21 25 -6 -32 c-3 -21 0 -35 9 -43 8 -7 15 -19 15 -28
0 -12 -5 -11 -23 6 -29 27 -37 28 -37 2 0 -39 -19 -19 -22 23 -3 39 -5 42 -32
42 -16 0 -31 -6 -33 -12 -3 -9 6 -13 27 -13 18 0 29 -4 25 -10 -3 -5 -17 -10
-31 -10 -15 0 -24 -6 -24 -15 0 -9 9 -15 25 -15 14 0 25 -5 25 -11 0 -6 -14
-9 -32 -7 -30 3 -34 7 -39 43 l-6 40 -2 -37 c-1 -42 -21 -64 -21 -24 0 21 -5
26 -26 26 -17 0 -28 -6 -31 -20 -11 -41 -24 -19 -17 28 3 26 3 44 -1 40 -5 -4
-14 -3 -21 3 -9 8 -18 5 -34 -11 -25 -25 -22 -45 8 -45 32 -1 37 -13 8 -21
-30 -7 -56 9 -56 35 1 35 53 75 80 62 8 -5 21 -6 28 -4z m358 -11 c3 -13 4
-37 1 -52 l-4 -29 -8 33 c-6 25 -11 30 -20 22 -7 -6 -16 -22 -19 -35 -7 -29
-36 -34 -36 -6 0 10 -3 33 -6 50 -4 20 -3 31 5 31 6 0 11 -9 11 -19 0 -32 15
-32 34 0 21 35 34 37 42 5z m514 -1 c-14 -8 -29 -14 -35 -14 -5 0 1 6 15 14
14 8 30 14 35 14 6 0 -1 -6 -15 -14z m-245 -116 c-54 -17 -166 -39 -193 -38
-15 0 20 11 78 24 108 23 170 31 115 14z m-460 -59 c-3 -5 -21 -9 -38 -9 l-32
1 30 8 c43 11 47 11 40 0z"/>
</g>
</svg>
