<svg width="24" height="24" viewBox="0 0 24 24" fill="none" xmlns="http://www.w3.org/2000/svg">
<path d="M21.6844 2.97208C21.4763 2.79576 21.2243 2.67912 20.9553 2.63455C20.6862 2.58998 20.4101 2.61915 20.1563 2.71895L2.85 9.51583C2.54646 9.63148 2.28934 9.8437 2.11824 10.1198C1.94715 10.3959 1.87157 10.7207 1.90313 11.044C1.93129 11.3671 2.06346 11.6725 2.27981 11.9142C2.49616 12.1559 2.78504 12.3209 3.10313 12.3846L7.5 13.2565V18.7502C7.49985 19.0474 7.58798 19.338 7.75323 19.585C7.91847 19.832 8.15337 20.0244 8.42813 20.1377C8.60997 20.2109 8.804 20.2491 9 20.2502C9.19701 20.2509 9.39218 20.2123 9.57409 20.1366C9.75599 20.061 9.92097 19.9498 10.0594 19.8096L12.4969 17.3815L16.1813 20.6252C16.4533 20.8651 16.803 20.9983 17.1656 21.0002C17.3251 21.0035 17.4839 20.9781 17.6344 20.9252C17.8818 20.8469 18.1045 20.7054 18.2804 20.5147C18.4563 20.324 18.5794 20.0906 18.6375 19.8377L22.1625 4.44395C22.2241 4.17833 22.2122 3.90093 22.1279 3.6416C22.0437 3.38226 21.8903 3.15079 21.6844 2.97208ZM8.07188 11.8408L3.40313 10.9127L16.4906 5.76583L8.07188 11.8408ZM9 18.7502V14.3065L11.3625 16.3877L9 18.7502ZM17.175 19.5002L9.45 12.7033L20.5781 4.66895L17.175 19.5002Z" fill="white"/>
</svg>
